Coordinates
version=1
nRows=32
nColumns=12
inDegrees=yes

Units are S.I. units (second, meters, Newtons, ...)
Angles are in degrees

endheader
time	SC_y	SC_z	SC_x	AC_y	AC_z	AC_x	GH_y	GH_z	GH_yy	EL_x	PS_y
       0.0              -27.93          37.34          26.67          55.95          -17.0          15.75         -105.7           32.4         -36.13          108.1          59.17
   0.04033              -27.93          37.34          26.67          55.95          -17.0          15.75         -105.7          32.39         -36.15          108.1          59.16
   0.08066              -27.93          37.34          26.67          55.94          -17.0          15.75         -105.7          32.38         -36.16          108.1          59.15
     0.121              -27.93          37.34          26.67          55.94         -16.99          15.75         -105.7          32.37         -36.18          108.1          59.14
    0.1613              -27.93          37.34          26.67          55.93         -16.99          15.75         -105.6          32.37         -36.19          108.1          59.13
    0.2016              -27.93          37.34          26.67          55.93         -16.98          15.75         -105.6          32.36         -36.21          108.1          59.12
     0.242              -27.93          37.34          26.67          55.93         -16.98          15.75         -105.6          32.35         -36.23          108.0          59.11
    0.2823              -27.93          37.34          26.67          55.92         -16.97          15.75         -105.5          32.34         -36.25          108.0           59.1
    0.3226              -27.93          37.34          26.67          55.92         -16.97          15.74         -105.5          32.32         -36.27          108.0          59.09
     0.363              -27.92          37.34          26.67          55.91         -16.96          15.74         -105.5          32.31         -36.29          108.0          59.08
    0.4033              -27.92          37.34          26.67           55.9         -16.96          15.74         -105.4           32.3         -36.32          108.0          59.07
    0.4436              -27.92          37.34          26.66           55.9         -16.95          15.74         -105.4          32.29         -36.35          107.9          59.05
     0.484              -27.92          37.34          26.66          55.89         -16.94          15.74         -105.3          32.27         -36.37          107.9          59.03
    0.5243              -27.92          37.34          26.66          55.88         -16.93          15.74         -105.3          32.26         -36.41          107.9          59.02
    0.5646              -27.92          37.35          26.66          55.87         -16.92          15.74         -105.2          32.24         -36.44          107.8           59.0
    0.6049              -27.92          37.35          26.66          55.87         -16.92          15.74         -105.2          32.22         -36.48          107.8          58.98
    0.6453              -27.92          37.35          26.66          55.86         -16.91          15.73         -105.1           32.2         -36.52          107.8          58.96
    0.6856              -27.92          37.35          26.66          55.85         -16.89          15.73         -105.0          32.18         -36.56          107.7          58.93
    0.7259              -27.91          37.35          26.66          55.83         -16.88          15.73         -104.9          32.15         -36.61          107.7          58.91
    0.7663              -27.91          37.35          26.66          55.82         -16.87          15.73         -104.9          32.12         -36.66          107.6          58.88
    0.8066              -27.91          37.35          26.65          55.81         -16.85          15.73         -104.8           32.1         -36.71          107.6          58.85
    0.8469              -27.91          37.35          26.65          55.79         -16.84          15.72         -104.7          32.06         -36.78          107.5          58.81
    0.8873              -27.91          37.35          26.65          55.78         -16.82          15.72         -104.5          32.03         -36.85          107.4          58.78
    0.9276               -27.9          37.35          26.65          55.76          -16.8          15.72         -104.4          31.99         -36.92          107.3          58.73
    0.9679               -27.9          37.35          26.65          55.74         -16.78          15.71         -104.3          31.94         -37.01          107.3          58.69
     1.008               -27.9          37.35          26.64          55.71         -16.75          15.71         -104.1           31.9          -37.1          107.2          58.64
     1.049              -27.89          37.36          26.64          55.69         -16.73          15.71         -103.9          31.84         -37.21          107.1          58.58
     1.089              -27.89          37.36          26.64          55.66          -16.7           15.7         -103.7          31.78         -37.33          106.9          58.51
     1.129              -27.89          37.36          26.63          55.63         -16.66           15.7         -103.5          31.71         -37.46          106.8          58.44
      1.17              -27.88          37.36          26.63          55.59         -16.62          15.69         -103.2          31.63         -37.61          106.7          58.35
      1.21              -27.87          37.36          26.62          55.55         -16.58          15.68         -102.9          31.54         -37.79          106.5          58.26
      1.25              -27.87          37.37          26.62           55.5         -16.53          15.67         -102.6          31.44         -37.99          106.3          58.15
